HIERARCHY
ROOT pelvis
{
	OFFSET -20.459700 -3.402440 102.818000
	CHANNELS 6 Xposition Yposition Zposition Zrotation Yrotation Xrotation 
	JOINT spine_01
	{
		OFFSET 2.595450 0.208490 0.000000
		CHANNELS 3 Zrotation Yrotation Xrotation
		JOINT spine_02
		{
			OFFSET 4.877290 -0.954006 0.022121
			CHANNELS 3 Zrotation Yrotation Xrotation
			JOINT spine_03
			{
				OFFSET 6.297470 0.000308 -0.000423
				CHANNELS 3 Zrotation Yrotation Xrotation
				JOINT spine_04
				{
					OFFSET 6.663410 -0.000045 0.000068
					CHANNELS 3 Zrotation Yrotation Xrotation
					JOINT spine_05
					{
						OFFSET 13.137500 0.000042 0.000127
						CHANNELS 3 Zrotation Yrotation Xrotation
						JOINT neck_01
						{
							OFFSET 13.870200 -0.000043 0.000048
							CHANNELS 3 Zrotation Yrotation Xrotation
							JOINT neck_02
							{
								OFFSET 4.295250 0.000000 0.000045
								CHANNELS 3 Zrotation Yrotation Xrotation
								JOINT head
								{
									OFFSET 4.491710 0.000740 0.001639
									CHANNELS 3 Zrotation Yrotation Xrotation
									End Site
									{
										OFFSET 0.000000 0.000000 0.000000
									}
								}
							}
						}
						JOINT clavicle_l
						{
							OFFSET 8.029550 0.614939 -0.570049
							CHANNELS 3 Zrotation Yrotation Xrotation
							JOINT upperarm_l
							{
								OFFSET 10.136200 0.000000 0.000032
								CHANNELS 3 Zrotation Yrotation Xrotation
								JOINT lowerarm_l
								{
									OFFSET 28.731500 0.000017 0.000177
									CHANNELS 3 Zrotation Yrotation Xrotation
									JOINT hand_l
									{
										OFFSET 24.762400 0.000000 0.000000
										CHANNELS 3 Zrotation Yrotation Xrotation
										JOINT thumb_01_l
										{
											OFFSET 1.645750 1.668330 -1.524320
											CHANNELS 3 Zrotation Yrotation Xrotation
											JOINT thumb_02_l
											{
												OFFSET 4.551640 0.000000 0.000000
												CHANNELS 3 Zrotation Yrotation Xrotation
												JOINT thumb_03_l
												{
													OFFSET 2.644270 0.000000 0.000000
													CHANNELS 3 Zrotation Yrotation Xrotation
													End Site
													{
														OFFSET 0.000000 0.000000 0.000000
													}
												}
											}
										}
										JOINT index_metacarpal_l
										{
											OFFSET 3.005770 0.596985 -1.772920
											CHANNELS 3 Zrotation Yrotation Xrotation
											JOINT index_01_l
											{
												OFFSET 4.688790 0.000000 0.000000
												CHANNELS 3 Zrotation Yrotation Xrotation
												JOINT index_02_l
												{
													OFFSET 4.383510 0.000000 0.000000
													CHANNELS 3 Zrotation Yrotation Xrotation
													JOINT index_03_l
													{
														OFFSET 1.965240 0.000000 0.000000
														CHANNELS 3 Zrotation Yrotation Xrotation
														End Site
														{
															OFFSET 0.000000 0.000000 0.000000
														}
													}
												}
											}
										}
										JOINT middle_metacarpal_l
										{
											OFFSET 2.804600 0.096878 -0.451881
											CHANNELS 3 Zrotation Yrotation Xrotation
											JOINT middle_01_l
											{
												OFFSET 5.012010 0.000000 0.000000
												CHANNELS 3 Zrotation Yrotation Xrotation
												JOINT middle_02_l
												{
													OFFSET 4.395510 0.000000 0.000000
													CHANNELS 3 Zrotation Yrotation Xrotation
													JOINT middle_03_l
													{
														OFFSET 2.842500 0.000000 0.000000
														CHANNELS 3 Zrotation Yrotation Xrotation
														End Site
														{
															OFFSET 0.000000 0.000000 0.000000
														}
													}
												}
											}
										}
										JOINT ring_metacarpal_l
										{
											OFFSET 2.852190 -0.096878 0.451885
											CHANNELS 3 Zrotation Yrotation Xrotation
											JOINT ring_01_l
											{
												OFFSET 4.533700 0.000000 0.000000
												CHANNELS 3 Zrotation Yrotation Xrotation
												JOINT ring_02_l
												{
													OFFSET 3.768560 0.000000 0.000000
													CHANNELS 3 Zrotation Yrotation Xrotation
													JOINT ring_03_l
													{
														OFFSET 3.036250 0.000000 0.000000
														CHANNELS 3 Zrotation Yrotation Xrotation
														End Site
														{
															OFFSET 0.000000 0.000000 0.000000
														}
													}
												}
											}
										}
										JOINT pinky_metacarpal_l
										{
											OFFSET 2.818930 -0.276169 1.463940
											CHANNELS 3 Zrotation Yrotation Xrotation
											JOINT pinky_01_l
											{
												OFFSET 4.238140 0.000000 0.000000
												CHANNELS 3 Zrotation Yrotation Xrotation
												JOINT pinky_02_l
												{
													OFFSET 2.504320 0.000000 0.000000
													CHANNELS 3 Zrotation Yrotation Xrotation
													JOINT pinky_03_l
													{
														OFFSET 1.820020 0.000000 0.000000
														CHANNELS 3 Zrotation Yrotation Xrotation
														End Site
														{
															OFFSET 0.000000 0.000000 0.000000
														}
													}
												}
											}
										}
									}
								}
							}
						}
						JOINT clavicle_r
						{
							OFFSET 8.029690 0.615852 0.570123
							CHANNELS 3 Zrotation Yrotation Xrotation
							JOINT upperarm_r
							{
								OFFSET -10.135000 -0.002579 -0.000361
								CHANNELS 3 Zrotation Yrotation Xrotation
								JOINT lowerarm_r
								{
									OFFSET -28.732900 0.001365 0.005621
									CHANNELS 3 Zrotation Yrotation Xrotation
									JOINT hand_r
									{
										OFFSET -24.764600 -0.001016 0.000179
										CHANNELS 3 Zrotation Yrotation Xrotation
										JOINT thumb_01_r
										{
											OFFSET -1.923320 -1.572070 1.284710
											CHANNELS 3 Zrotation Yrotation Xrotation
											JOINT thumb_02_r
											{
												OFFSET -4.550090 0.000000 0.000000
												CHANNELS 3 Zrotation Yrotation Xrotation
												JOINT thumb_03_r
												{
													OFFSET -2.644480 0.000000 0.000000
													CHANNELS 3 Zrotation Yrotation Xrotation
													End Site
													{
														OFFSET 0.000000 0.000000 0.000000
													}
												}
											}
										}
										JOINT index_metacarpal_r
										{
											OFFSET -3.268700 -0.454758 1.283810
											CHANNELS 3 Zrotation Yrotation Xrotation
											JOINT index_01_r
											{
												OFFSET -4.687710 0.000000 0.000000
												CHANNELS 3 Zrotation Yrotation Xrotation
												JOINT index_02_r
												{
													OFFSET -4.381770 0.000000 0.000000
													CHANNELS 3 Zrotation Yrotation Xrotation
													JOINT index_03_r
													{
														OFFSET -1.966530 0.000000 0.000000
														CHANNELS 3 Zrotation Yrotation Xrotation
														End Site
														{
															OFFSET 0.000000 0.000000 0.000000
														}
													}
												}
											}
										}
										JOINT middle_metacarpal_r
										{
											OFFSET -2.840320 0.000000 0.000000
											CHANNELS 3 Zrotation Yrotation Xrotation
											JOINT middle_01_r
											{
												OFFSET -5.011120 0.000000 0.000000
												CHANNELS 3 Zrotation Yrotation Xrotation
												JOINT middle_02_r
												{
													OFFSET -4.393970 0.000000 0.000000
													CHANNELS 3 Zrotation Yrotation Xrotation
													JOINT middle_03_r
													{
														OFFSET -2.845580 0.000000 0.000000
														CHANNELS 3 Zrotation Yrotation Xrotation
														End Site
														{
															OFFSET 0.000000 0.000000 0.000000
														}
													}
												}
											}
										}
										JOINT ring_metacarpal_r
										{
											OFFSET -2.735520 0.168312 -0.904747
											CHANNELS 3 Zrotation Yrotation Xrotation
											JOINT ring_01_r
											{
												OFFSET -4.532910 0.000000 0.000000
												CHANNELS 3 Zrotation Yrotation Xrotation
												JOINT ring_02_r
												{
													OFFSET -3.768440 0.000000 0.000000
													CHANNELS 3 Zrotation Yrotation Xrotation
													JOINT ring_03_r
													{
														OFFSET -3.036350 0.000000 0.000000
														CHANNELS 3 Zrotation Yrotation Xrotation
														End Site
														{
															OFFSET 0.000000 0.000000 0.000000
														}
													}
												}
											}
										}
										JOINT pinky_metacarpal_r
										{
											OFFSET -2.535800 0.313965 -1.904450
											CHANNELS 3 Zrotation Yrotation Xrotation
											JOINT pinky_01_r
											{
												OFFSET -4.232780 0.000000 0.000000
												CHANNELS 3 Zrotation Yrotation Xrotation
												JOINT pinky_02_r
												{
													OFFSET -2.504480 0.000000 0.000000
													CHANNELS 3 Zrotation Yrotation Xrotation
													JOINT pinky_03_r
													{
														OFFSET -1.821450 0.000000 0.000000
														CHANNELS 3 Zrotation Yrotation Xrotation
														End Site
														{
															OFFSET 0.000000 0.000000 0.000000
														}
													}
												}
											}
										}
									}
								}
							}
						}
					}
				}
			}
		}
	}
	JOINT thigh_l
	{
		OFFSET -2.313150 -0.051123 -9.310610
		CHANNELS 3 Zrotation Yrotation Xrotation
		JOINT calf_l
		{
			OFFSET -46.661800 -0.000912 -0.000026
			CHANNELS 3 Zrotation Yrotation Xrotation
			JOINT foot_l
			{
				OFFSET -44.414400 0.000097 0.000114
				CHANNELS 3 Zrotation Yrotation Xrotation
				JOINT ball_l
				{
					OFFSET -6.514580 -12.708700 -0.433235
					CHANNELS 3 Zrotation Yrotation Xrotation
					End Site
					{
						OFFSET 0.000000 0.000000 0.000000
					}
				}
			}
		}
	}
	JOINT thigh_r
	{
		OFFSET -2.313340 -0.050603 9.310440
		CHANNELS 3 Zrotation Yrotation Xrotation
		JOINT calf_r
		{
			OFFSET 46.659400 0.000796 0.000019
			CHANNELS 3 Zrotation Yrotation Xrotation
			JOINT foot_r
			{
				OFFSET 44.424700 0.000030 0.000094
				CHANNELS 3 Zrotation Yrotation Xrotation
				JOINT ball_r
				{
					OFFSET 6.504510 12.709200 0.435689
					CHANNELS 3 Zrotation Yrotation Xrotation
					End Site
					{
						OFFSET 0.000000 0.000000 0.000000
					}
				}
			}
		}
	}
}
MOTION
Frames: 4
Frame Time: 0.050000
0.001003 102.000008 0.016819 91.840851 4.725311 -75.280411 -11.610397 -0.811295 -0.875275 6.011200 -1.397797 -1.935150 8.192703 -1.058731 -2.139328 7.214127 -0.730026 -2.272705 -2.850388 -0.790558 -2.252350 -22.599823 2.036484 1.999817 1.459152 2.004684 2.031738 11.388062 19.934708 5.743195 123.843506 81.337585 141.210968 -47.791519 66.088028 -8.949249 -8.230423 -1.651047 -12.839874 34.420807 -25.309250 -140.306244 15.450546 36.178802 80.995270 58.057236 -16.234268 1.998688 14.584396 -1.952103 0.474609 0.000000 6.000000 8.000000 24.745560 -2.572968 -4.158554 49.595139 -3.758041 -9.097198 20.774963 -2.902298 -5.325256 -5.000000 -1.000015 0.800003 99.961060 -17.479660 -21.376236 126.378723 -0.789017 -35.415359 74.308868 -5.433670 -24.822601 0.000000 -12.000000 -2.000000 76.399933 -13.857452 -8.471481 118.368317 -7.435410 -24.993332 62.890152 -8.807266 -12.194626 12.000000 -20.000000 -10.000000 76.955353 -15.019409 -5.545700 97.929749 -16.140106 -11.986237 50.000290 -11.605469 -3.110687 -18.945999 81.060638 175.771820 -83.499191 44.165573 -11.056931 -94.059052 20.610458 -0.195587 12.711655 0.411987 -121.157730 31.922745 28.051743 79.806183 24.337189 -2.592499 1.039078 9.999985 0.000000 0.000000 0.000000 6.000000 8.000015 52.308243 -12.823807 -11.003448 45.749207 -8.374344 -12.131256 18.131760 -4.936172 -6.141449 -5.000000 -1.000015 0.800034 30.199570 -2.721954 -0.889725 39.804337 -7.241989 -6.904800 16.745499 -5.193680 -4.849167 0.000000 -12.000000 -2.000000 42.397781 -7.508682 -0.079834 62.763306 -14.945786 -15.152054 23.526550 -7.642792 -6.063049 12.000000 -20.000000 -10.000000 18.225845 -11.720688 -2.987671 32.256332 -9.596786 -2.565353 4.078735 -1.530670 -0.668808 -6.976242 2.753281 -4.179260 -2.227005 0.004150 -0.170807 -3.275177 0.051559 4.917358 -89.999996 0.000000 0.000000 171.657990 2.174820 4.076538 -4.167236 0.005447 -0.023239 1.349228 1.111115 14.934555 -89.999996 0.000000 0.000000 
0.000994 102.000000 0.016911 91.840027 4.728073 -75.330452 -11.609818 -0.810822 -0.877319 6.012390 -1.396347 -1.939102 8.193848 -1.056656 -2.142990 7.215256 -0.727432 -2.276016 -2.849243 -0.788055 -2.255737 -22.601410 2.039764 2.004913 1.457550 2.007874 2.036880 11.402557 19.946243 5.758331 123.882935 81.318176 141.257782 -47.747864 66.081375 -8.952148 -8.230377 -1.650696 -12.871765 34.448471 -25.334351 -140.329483 15.370255 36.219711 80.978638 58.040085 -16.227158 2.000336 14.539047 -1.932648 0.470505 0.000000 6.000000 8.000000 24.721191 -2.546875 -4.146164 49.527542 -3.748535 -9.072861 20.731628 -2.894775 -5.308487 -5.000000 -1.000015 0.800003 99.960541 -17.479034 -21.382141 126.378723 -0.789017 -35.415359 74.308868 -5.433670 -24.822601 0.000000 -12.000000 -2.000000 76.397095 -13.856934 -8.470352 118.365509 -7.435989 -24.992645 62.888931 -8.807251 -12.194321 12.000000 -20.000000 -10.000000 76.963226 -15.020584 -5.549103 97.933350 -16.140167 -11.987061 50.003479 -11.606049 -3.111130 -18.955215 81.051697 175.768921 -83.510483 44.166473 -11.038818 -94.038902 20.616821 -0.185776 12.705368 0.347244 -121.175690 32.018051 27.986511 79.876648 24.214767 -2.519089 1.010300 9.999985 0.000000 0.000000 0.000000 6.000000 8.000015 52.480103 -12.861969 -11.041870 45.781479 -8.383530 -12.148376 18.152939 -4.943649 -6.152740 -5.000000 -1.000015 0.800034 30.272186 -2.756592 -0.899063 39.911423 -7.281296 -6.957993 16.815506 -5.219238 -4.884506 0.000000 -12.000000 -2.000000 42.861679 -7.789993 -0.304810 63.618423 -14.991440 -15.618088 24.126190 -7.770248 -6.313583 12.000000 -20.000000 -10.000000 18.957840 -11.790100 -2.969193 33.046936 -9.848679 -2.829178 4.652908 -1.745255 -0.766327 -6.983658 2.757309 -4.173767 -2.230804 0.004242 -0.170288 -3.262314 0.061905 4.960663 -89.999996 0.000000 0.000000 171.658905 2.168945 4.064438 -4.175995 0.005371 -0.023056 1.351990 1.108582 14.896881 -89.999996 0.000000 0.000000 
0.000979 102.000000 0.017083 91.837311 4.736145 -75.479988 -11.608032 -0.809387 -0.883240 6.015945 -1.392014 -1.950516 8.197327 -1.050491 -2.153534 7.218643 -0.719772 -2.285522 -2.845840 -0.780655 -2.265442 -22.605927 2.049469 2.019714 1.453033 2.017334 2.051834 11.445969 19.978897 5.802582 124.004364 81.260864 141.400482 -47.618500 66.061691 -8.958969 -8.229767 -1.651749 -12.963852 34.531067 -25.407806 -140.399780 15.139267 36.337189 80.930206 57.984207 -16.203903 2.005768 14.407578 -1.876205 0.458618 0.000000 6.000000 8.000000 24.648788 -2.469604 -4.109528 49.326065 -3.720139 -9.000290 20.602585 -2.872345 -5.258530 -5.000000 -1.000015 0.800003 99.958954 -17.477234 -21.399399 126.378723 -0.789017 -35.415359 74.308868 -5.433670 -24.822601 0.000000 -12.000000 -2.000000 76.389709 -13.855591 -8.467361 118.358337 -7.437485 -24.990875 62.886032 -8.807251 -12.193573 12.000000 -20.000000 -10.000000 76.986908 -15.024139 -5.559341 97.945343 -16.140366 -11.989746 50.013626 -11.607910 -3.112534 -18.987228 81.026306 175.755157 -83.543427 44.170715 -10.987305 -93.979111 20.636230 -0.157669 12.686218 0.157318 -121.226532 32.314697 27.783386 80.094238 23.860138 -2.306473 0.926865 9.999985 0.000000 0.000000 0.000000 6.000000 8.000015 52.934692 -12.963196 -11.143631 45.902893 -8.417694 -12.212753 18.231506 -4.971283 -6.194626 -5.000000 -1.000015 0.800034 30.466324 -2.846512 -0.922333 40.194931 -7.386093 -7.098190 17.000732 -5.287231 -4.977722 0.000000 -12.000000 -2.000000 44.263275 -8.623978 -0.988510 66.184311 -15.096268 -17.002411 25.929962 -8.140778 -7.067093 12.000000 -20.000000 -10.000000 21.168335 -12.024216 -2.937958 35.486008 -10.593887 -3.652832 6.409195 -2.394394 -1.073349 -7.005630 2.769028 -4.157394 -2.241791 0.004532 -0.168777 -3.224152 0.092529 5.090118 -89.999996 0.000000 0.000000 171.661682 2.151749 4.028244 -4.201477 0.005173 -0.022522 1.359680 1.100922 14.784439 -89.999996 0.000000 0.000000 
0.000951 101.999985 0.017402 91.832153 4.748596 -75.716003 -11.605240 -0.807068 -0.892136 6.021545 -1.385208 -1.967621 8.202805 -1.040955 -2.169281 7.223999 -0.708008 -2.299683 -2.840454 -0.769272 -2.279907 -22.613007 2.064514 2.042526 1.445923 2.032028 2.074875 11.520737 20.028259 5.871994 124.190643 81.171051 141.619354 -47.423996 66.031021 -8.970139 -8.228424 -1.658478 -13.099106 34.659744 -25.525726 -140.512161 14.797195 36.510620 80.857483 57.873688 -16.158035 2.016083 14.208923 -1.790939 0.440582 0.000000 6.000000 8.000000 24.532791 -2.346649 -4.051559 49.002823 -3.674133 -8.884003 20.395523 -2.836166 -5.178467 -5.000000 -1.000015 0.800003 99.956451 -17.474396 -21.426636 126.378723 -0.789017 -35.415359 74.308868 -5.433670 -24.822601 0.000000 -12.000000 -2.000000 76.380219 -13.853882 -8.463547 118.350189 -7.439178 -24.988876 62.883545 -8.807251 -12.192932 12.000000 -20.000000 -10.000000 77.029480 -15.030457 -5.577774 97.972229 -16.140823 -11.995819 50.034943 -11.611832 -3.115494 -19.043274 80.989197 175.726685 -83.594109 44.180206 -10.911911 -93.886116 20.667465 -0.114639 12.656937 -0.130737 -121.299744 32.801010 27.447601 80.452606 23.330658 -1.989105 0.802048 9.999985 0.000000 0.000000 0.000000 6.000000 8.000015 53.513168 -13.092682 -11.273666 46.192169 -8.492493 -12.369949 18.416382 -5.033478 -6.294724 -5.000000 -1.000015 0.800034 30.734344 -2.967239 -0.952194 40.583359 -7.530518 -7.289459 17.254303 -5.380737 -5.105042 0.000000 -12.000000 -2.000000 46.530579 -9.921768 -2.110092 70.266190 -15.175476 -19.181198 28.809418 -8.695709 -8.275467 12.000000 -20.000000 -10.000000 24.745987 -12.457031 -2.980988 39.526001 -11.744858 -5.043777 9.279404 -3.435547 -1.598907 -7.039795 2.786926 -4.131485 -2.257950 0.004959 -0.166428 -3.164688 0.140427 5.294342 -89.999996 0.000000 0.000000 171.666382 2.125290 3.971573 -4.240021 0.004868 -0.021729 1.370667 1.088989 14.606506 -89.999996 0.000000 0.000000 
